<svg width="640" height="360" viewBox="0 0 640 360" fill="none" xmlns="http://www.w3.org/2000/svg">
<path d="M259.562 188.093C262.153 188.093 264.25 185.996 264.25 183.406V178.719V109.156C264.25 106.572 266.351 104.469 268.938 104.469H343.187C345.778 104.469 347.874 102.37 347.874 99.7812C347.874 97.1926 345.778 95.0938 343.187 95.0938H268.938C261.183 95.0938 254.875 101.402 254.875 109.156V183.406C254.875 185.996 256.972 188.093 259.562 188.093Z" fill="#626569"/>
<path d="M386.125 109.156C386.125 103.971 383.273 99.4834 379.085 97.045L384.747 91.3836C386.578 89.5525 386.578 86.5862 384.747 84.7552C382.916 82.9241 379.95 82.9241 378.119 84.7552L256.253 206.619C254.422 208.45 254.422 211.416 256.253 213.247C257.168 214.163 258.368 214.62 259.567 214.62C260.766 214.62 261.966 214.163 262.881 213.247L273.222 202.906H372.062C379.817 202.906 386.125 196.598 386.125 188.844V109.156ZM376.75 188.844C376.75 191.43 374.649 193.531 372.062 193.531H282.597L316.885 159.245L328.9 176.214C329.719 177.377 331.024 178.109 332.443 178.196C333.848 178.256 335.249 177.72 336.201 176.672L350.52 160.847L364.514 180.201C365.43 181.469 366.862 182.142 368.318 182.142C369.27 182.142 370.231 181.854 371.06 181.254C373.157 179.734 373.628 176.805 372.113 174.708L354.722 150.659C353.894 149.513 352.589 148.801 351.175 148.725C349.788 148.668 348.392 149.215 347.444 150.266L333.208 166.038L323.615 152.514L335.992 140.138C338.791 142.894 342.607 144.546 346.702 144.546C355.102 144.546 361.937 137.712 361.937 129.312C361.937 125.209 360.281 121.4 357.514 118.616L371.662 104.469H372.062C374.649 104.469 376.75 106.572 376.75 109.156V188.844ZM350.841 125.288C351.887 126.351 352.562 127.754 352.562 129.312C352.562 132.543 349.934 135.171 346.702 135.171C345.147 135.171 343.738 134.504 342.661 133.469L350.841 125.288Z" fill="#626569"/>
<path d="M303.233 127.297C301.69 127.318 300.253 128.098 299.397 129.383L283.975 152.49C282.715 154.379 283.083 156.793 284.626 158.342C284.844 158.56 285.009 158.816 285.275 158.993C286.072 159.524 286.978 159.78 287.871 159.78C289.386 159.78 290.869 159.048 291.775 157.693L303.508 140.11C305.105 141.417 307.426 141.566 309.193 140.309C311.303 138.815 311.807 135.89 310.31 133.777L309.846 133.122L307.124 129.277C306.231 128.016 304.776 127.291 303.233 127.297Z" fill="#626569"/>
<path d="M247.99 274.017C247.99 273.647 247.933 273.318 247.819 273.028C247.713 272.729 247.516 272.461 247.226 272.224C246.944 271.978 246.544 271.74 246.026 271.512C245.516 271.274 244.857 271.028 244.048 270.773C243.152 270.492 242.317 270.176 241.543 269.824C240.77 269.473 240.089 269.064 239.5 268.598C238.92 268.132 238.467 267.596 238.142 266.99C237.817 266.375 237.654 265.663 237.654 264.854C237.654 264.063 237.821 263.342 238.155 262.692C238.498 262.042 238.981 261.483 239.605 261.018C240.229 260.543 240.963 260.178 241.807 259.923C242.66 259.668 243.6 259.541 244.628 259.541C246.052 259.541 247.283 259.8 248.32 260.319C249.366 260.837 250.174 261.541 250.746 262.428C251.317 263.316 251.603 264.313 251.603 265.421H247.99C247.99 264.823 247.863 264.296 247.608 263.839C247.362 263.382 246.984 263.021 246.474 262.758C245.973 262.494 245.34 262.362 244.576 262.362C243.837 262.362 243.222 262.472 242.73 262.692C242.247 262.912 241.882 263.21 241.636 263.588C241.398 263.966 241.28 264.388 241.28 264.854C241.28 265.206 241.363 265.522 241.53 265.803C241.697 266.076 241.948 266.335 242.282 266.581C242.616 266.818 243.029 267.042 243.521 267.253C244.022 267.456 244.602 267.658 245.261 267.86C246.316 268.176 247.239 268.528 248.03 268.915C248.83 269.301 249.493 269.741 250.021 270.233C250.557 270.725 250.957 271.279 251.22 271.894C251.493 272.509 251.629 273.208 251.629 273.99C251.629 274.816 251.466 275.555 251.141 276.205C250.816 276.855 250.35 277.409 249.744 277.866C249.137 278.323 248.408 278.67 247.555 278.908C246.711 279.145 245.767 279.264 244.721 279.264C243.789 279.264 242.866 279.141 241.952 278.895C241.047 278.64 240.225 278.262 239.487 277.761C238.749 277.251 238.16 276.609 237.72 275.836C237.281 275.054 237.061 274.14 237.061 273.094H240.7C240.7 273.7 240.796 274.219 240.99 274.649C241.192 275.071 241.473 275.418 241.833 275.691C242.203 275.955 242.633 276.148 243.125 276.271C243.618 276.394 244.149 276.456 244.721 276.456C245.459 276.456 246.065 276.354 246.54 276.152C247.023 275.941 247.384 275.651 247.621 275.282C247.867 274.913 247.99 274.491 247.99 274.017ZM267.146 276.152V279H256.942V276.152H267.146ZM258.049 259.805V279H254.424V259.805H258.049ZM265.814 267.728V270.51H256.942V267.728H265.814ZM267.106 259.805V262.666H256.942V259.805H267.106ZM271.246 259.805H274.384L279.631 274.254L284.865 259.805H288.016L280.883 279H278.365L271.246 259.805ZM269.664 259.805H272.736L273.29 273.081V279H269.664V259.805ZM286.513 259.805H289.598V279H285.972V273.081L286.513 259.805ZM303.875 259.805V279H300.25V259.805H303.875ZM309.373 259.805H312.511L317.758 274.254L322.992 259.805H326.143L319.01 279H316.492L309.373 259.805ZM307.791 259.805H310.863L311.417 273.081V279H307.791V259.805ZM324.64 259.805H327.725V279H324.099V273.081L324.64 259.805ZM339.287 262.718L333.815 279H329.979L337.151 259.805H339.603L339.287 262.718ZM343.861 279L338.364 262.718L338.034 259.805H340.5L347.711 279H343.861ZM343.611 271.868V274.729H333.314V271.868H343.611ZM364.428 269.073V276.548C364.146 276.908 363.703 277.299 363.096 277.721C362.499 278.143 361.716 278.508 360.75 278.815C359.783 279.114 358.596 279.264 357.19 279.264C355.968 279.264 354.852 279.062 353.841 278.657C352.831 278.244 351.96 277.642 351.231 276.851C350.501 276.06 349.939 275.093 349.543 273.951C349.148 272.808 348.95 271.503 348.95 270.035V268.77C348.95 267.302 349.135 265.997 349.504 264.854C349.882 263.711 350.418 262.745 351.112 261.954C351.815 261.163 352.655 260.561 353.63 260.147C354.615 259.734 355.713 259.528 356.926 259.528C358.552 259.528 359.888 259.796 360.934 260.332C361.989 260.868 362.797 261.606 363.36 262.547C363.922 263.479 364.274 264.551 364.415 265.764H360.881C360.785 265.096 360.591 264.511 360.301 264.01C360.011 263.5 359.598 263.105 359.062 262.824C358.535 262.534 357.849 262.389 357.005 262.389C356.293 262.389 355.665 262.529 355.12 262.811C354.575 263.092 354.118 263.5 353.749 264.037C353.38 264.573 353.099 265.236 352.905 266.027C352.721 266.818 352.628 267.724 352.628 268.743V270.035C352.628 271.063 352.734 271.978 352.945 272.777C353.156 273.568 353.459 274.236 353.854 274.781C354.259 275.317 354.755 275.726 355.344 276.007C355.942 276.28 356.619 276.416 357.375 276.416C358.06 276.416 358.627 276.359 359.075 276.245C359.532 276.122 359.897 275.977 360.169 275.81C360.442 275.643 360.653 275.48 360.802 275.322V271.723H356.992V269.073H364.428ZM380.578 276.152V279H370.374V276.152H380.578ZM371.481 259.805V279H367.855V259.805H371.481ZM379.246 267.728V270.51H370.374V267.728H379.246ZM380.538 259.805V262.666H370.374V259.805H380.538ZM384.678 259.805H387.815L393.062 274.254L398.296 259.805H401.447L394.315 279H391.797L384.678 259.805ZM383.096 259.805H386.167L386.721 273.081V279H383.096V259.805ZM399.944 259.805H403.029V279H399.404V273.081L399.944 259.805Z" fill="#626569"/>
</svg>
